<svg width="938" height="252" viewBox="0 0 938 252" fill="none" xmlns="http://www.w3.org/2000/svg">
<path fill-rule="evenodd" clip-rule="evenodd" d="M0 126C0 195.6 56.5 252 126 252C195.5 252 252 195.6 252 126C252 56.4 195.6 0 126 0C56.4 0 0 56.4 0 126Z" fill="#192E45"/>
<path fill-rule="evenodd" clip-rule="evenodd" d="M23.9 96.6L16.8 111L26.4 97.6C26.4 97.7 25.8 116.9 25.8 116.9L28.5 102.4C35.7 116.1 51.6 137.2 73.9 152.9C75.6 154.1 77.8 156.2 78.5 157C78.5 157 99.8 167.8 132.6 142.8C132.9 142.6 133.3 142.4 133.6 142.2L134.1 142.5L141.3 147.3C138.8 146.6 134 145.4 134 145.4C118.2 163.6 92.5 166.6 78.7 157.4C78.1 157 74.7 158.4 74.1 160.4C73.7 161.5 74.1 162.7 74.6 163.6C77.4 168.8 81.6 168.3 79.6 174.4C78.2 177.7 76.2 180.9 74 183.9C69.4 190.1 62.2 195.6 62.9 198.9C95.5 239.1 169 233.5 197 197.6C196.6 192.4 188.4 189.9 182.7 177.2C184.3 177.7 186.7 178.4 186.7 178.3C186.7 178.2 179.9 167.2 179.6 166.1L184 166.4C184 166.4 178.2 159.2 178 158.5L183.9 157.7C183.9 157.7 176.5 149.2 176.4 148.5L183.9 149.7L175.7 139.8H179.6L175 133.1L137.7 118.4C123.4 109.5 110.7 98.6 101.1 90.2L81.8 80.8C63.3 79.4 46 79.9 35.4 82L42.2 70.4L32.3 82.2C31.7 82 31 81.8 31 81.8L31.7 66.8L28.4 80.8L23.9 96.6Z" fill="#D2943B"/>
<path fill-rule="evenodd" clip-rule="evenodd" d="M28.4 80.8C23.5 78.5 17.8 81.8 16.8 86.3C15.6 90.6 18.6 95.9 23.9 96.6C28.9 93.5 33.2 85.5 28.4 80.8Z" fill="#FFCD86"/>
<path fill-rule="evenodd" clip-rule="evenodd" d="M101.2 69.9C99.7 65.8 100.1 60.5 102.2 55.5C105.2 48.6 110.9 44 116.3 44C117.4 44 118.4 44.2 119.4 44.6C122.5 41.8 126.1 39.5 130.1 37.9C152.1 29.1 184.4 44.8 192.7 66.4C196.7 76.9 195.5 88.3 192.1 98.8C189.3 107.4 179.1 119.8 182.9 129.1C181.4 128.7 150.1 118.1 141.1 113.3C127 104.5 114.4 93.7 104.9 85.4L104.6 85.1L72.6 69.9C72.2 69.7 71.8 69.5 71.5 69.3C75.9 69.5 93.4 71.6 101.2 69.9Z" fill="#FFD524"/>
<path d="M121.208 63.6455C124.218 56.7639 123.335 49.7321 119.237 47.9395C115.138 46.147 109.376 50.2725 106.366 57.1542C103.356 64.0358 104.239 71.0676 108.338 72.8602C112.436 74.6527 118.199 70.5272 121.208 63.6455Z" fill="white"/>
<path d="M120.1 46.1C114.8 43.8 107.7 48.3 104.2 56.2C100.7 64.1 102.3 72.3 107.6 74.7C112.9 77 120 72.5 123.5 64.6C127 56.7 125.4 48.5 120.1 46.1ZM120.6 63.4C117.8 69.7 112.5 73.5 108.8 71.9C105 70.2 104.2 63.8 107 57.4C109.8 51.1 115.1 47.3 118.9 48.9C122.6 50.6 123.4 57.1 120.6 63.4Z" fill="#192E45"/>
<path d="M297 75.7C297 74.8 297.6 74.2 298.5 74.2H316.3C317.5 74.2 318.3 74.6 318.7 75.7L344.5 134H345.1L370.4 75.7C370.8 74.7 371.6 74.2 372.8 74.2H390.3C391.2 74.2 391.8 74.8 391.8 75.7V174.9C391.8 175.8 391.2 176.4 390.3 176.4H373.3C372.4 176.4 371.8 175.8 371.8 174.9V117.4H371.2L352.3 160.5C351.7 161.9 350.8 162.5 349.5 162.5H339.2C337.9 162.5 337 161.9 336.4 160.5L317.5 117.4H316.9V174.9C316.9 175.8 316.3 176.4 315.4 176.4H298.5C297.6 176.4 297 175.8 297 174.9V75.7Z" fill="white"/>
<path d="M414.1 138.8V75.7C414.1 74.8 414.7 74.2 415.6 74.2H434.6C435.5 74.2 436.1 74.8 436.1 75.7V139.4C436.1 151.5 442.9 158.4 453.2 158.4C463.4 158.4 470.1 151.5 470.1 139.4V75.7C470.1 74.8 470.7 74.2 471.6 74.2H490.6C491.5 74.2 492.1 74.8 492.1 75.7V138.8C492.1 164.1 475.9 178 453.1 178C430.3 178 414.1 164.2 414.1 138.8Z" fill="white"/>
<path d="M514.3 75.7C514.3 74.8 514.9 74.2 515.8 74.2H534.8C535.7 74.2 536.3 74.8 536.3 75.7V155.8C536.3 156.4 536.6 156.7 537.2 156.7H582.2C583.1 156.7 583.7 157.3 583.7 158.2V174.8C583.7 175.7 583.1 176.3 582.2 176.3H515.8C514.9 176.3 514.3 175.7 514.3 174.8V75.7Z" fill="white"/>
<path d="M599.9 75.7C599.9 74.8 600.5 74.2 601.4 74.2H620.4C621.3 74.2 621.9 74.8 621.9 75.7V155.8C621.9 156.4 622.2 156.7 622.8 156.7H667.8C668.7 156.7 669.3 157.3 669.3 158.2V174.8C669.3 175.7 668.7 176.3 667.8 176.3H601.4C600.5 176.3 599.9 175.7 599.9 174.8V75.7Z" fill="white"/>
<path d="M700.9 176.2C699.9 176.2 699.3 175.6 699 174.7L666.6 75.7C666.3 74.6 666.9 74.1 667.9 74.1H687.4C688.4 74.1 689.1 74.5 689.4 75.6L709.8 142.6H710.2L730 75.6C730.3 74.6 730.9 74.1 731.9 74.1H751.2C752.1 74.1 752.7 74.7 752.4 75.7L720 174.7C719.7 175.6 719.1 176.2 718.2 176.2H700.9Z" fill="white"/>
<path d="M788.4 75.7C788.7 74.8 789.3 74.2 790.4 74.2H809.3C810.3 74.2 810.9 74.8 811.2 75.7L845.7 174.9C846 175.8 845.7 176.4 844.7 176.4H825.2C824.2 176.4 823.5 175.9 823.2 174.9L817.4 157.1H781.7L776 174.9C775.7 175.9 775.1 176.4 774 176.4H754.4C753.4 176.4 753.1 175.8 753.4 174.9L788.4 75.7ZM811.4 138.1L799.9 102.2H799.5L788 138L811.4 138.1Z" fill="white"/>
<path d="M860.6 75.7C860.6 74.8 861.2 74.2 862.1 74.2H900C917.8 74.2 930.3 81.8 935.2 97.1C937 102.8 937.9 108.5 937.9 125.2C937.9 141.9 937 147.5 935.2 153.3C930.3 168.6 917.8 176.2 900 176.2H862.1C861.2 176.2 860.6 175.6 860.6 174.7V75.7ZM883.5 156.7H895C905.2 156.7 911.3 153.7 913.9 145.5C914.9 142.5 915.6 138.6 915.6 125.4C915.6 112.2 915 108.3 913.9 105.3C911.4 97.1 905.2 94.1 895 94.1H883.5C882.9 94.1 882.6 94.4 882.6 95V156C882.6 156.2 882.9 156.7 883.5 156.7Z" fill="white"/>
</svg>
